<svg width="83" height="83" viewBox="0 0 83 83" fill="none" xmlns="http://www.w3.org/2000/svg">
<g filter="url(#filter0_d_1_13002)">
<circle cx="41.8008" cy="37.7989" r="36.8966" fill="#E7EDFF"/>
<g clip-path="url(#clip0_1_13002)">
<path d="M41.7603 37.3989C43.8779 37.3989 45.7117 36.6394 47.21 35.1409C48.7083 33.6426 49.4678 31.8093 49.4678 29.6914C49.4678 27.5742 48.7083 25.7407 47.2097 24.2419C45.7112 22.7439 43.8777 21.9844 41.7603 21.9844C39.6423 21.9844 37.8091 22.7439 36.3108 24.2422C34.8125 25.7405 34.0527 27.574 34.0527 29.6914C34.0527 31.8093 34.8125 33.6428 36.311 35.1411C37.8096 36.6392 39.6431 37.3989 41.7603 37.3989Z" fill="#396AFF"/>
<path d="M55.2463 46.5906C55.2031 45.967 55.1157 45.2869 54.9871 44.5686C54.8572 43.845 54.6899 43.1609 54.4897 42.5356C54.283 41.8894 54.0017 41.2512 53.6541 40.6396C53.2932 40.0049 52.8694 39.4521 52.3938 38.9973C51.8965 38.5215 51.2876 38.1389 50.5835 37.8599C49.8818 37.5823 49.1042 37.4417 48.2725 37.4417C47.9458 37.4417 47.6299 37.5757 47.0198 37.9729C46.6443 38.2178 46.2051 38.501 45.7148 38.8142C45.2957 39.0813 44.7278 39.3315 44.0264 39.5581C43.342 39.7795 42.6472 39.8918 41.9614 39.8918C41.2756 39.8918 40.5811 39.7795 39.896 39.5581C39.1953 39.3318 38.6274 39.0815 38.2087 38.8145C37.7231 38.5042 37.2837 38.2209 36.9026 37.9727C36.2932 37.5754 35.9771 37.4414 35.6504 37.4414C34.8184 37.4414 34.041 37.5823 33.3396 37.8601C32.636 38.1387 32.0269 38.5212 31.5291 38.9976C31.0537 39.4526 30.6296 40.0051 30.2693 40.6396C29.9219 41.2512 29.6406 41.8892 29.4336 42.5359C29.2336 43.1611 29.0664 43.845 28.9365 44.5686C28.8079 45.2859 28.7205 45.9663 28.6772 46.5913C28.6348 47.2036 28.6133 47.8391 28.6133 48.481C28.6133 50.1514 29.1443 51.5037 30.1914 52.501C31.2256 53.4851 32.594 53.9844 34.2581 53.9844H49.6663C51.3303 53.9844 52.6982 53.4853 53.7327 52.501C54.78 51.5044 55.311 50.1519 55.311 48.4807C55.3108 47.8359 55.2891 47.1999 55.2463 46.5906Z" fill="#396AFF"/>
</g>
</g>
<defs>
<filter id="filter0_d_1_13002" x="0.904297" y="0.902344" width="81.793" height="81.793" filterUnits="userSpaceOnUse" color-interpolation-filters="sRGB">
<feFlood flood-opacity="0" result="BackgroundImageFix"/>
<feColorMatrix in="SourceAlpha" type="matrix" values="0 0 0 0 0 0 0 0 0 0 0 0 0 0 0 0 0 0 127 0" result="hardAlpha"/>
<feOffset dy="4"/>
<feGaussianBlur stdDeviation="2"/>
<feComposite in2="hardAlpha" operator="out"/>
<feColorMatrix type="matrix" values="0 0 0 0 0 0 0 0 0 0 0 0 0 0 0 0 0 0 0.25 0"/>
<feBlend mode="normal" in2="BackgroundImageFix" result="effect1_dropShadow_1_13002"/>
<feBlend mode="normal" in="SourceGraphic" in2="effect1_dropShadow_1_13002" result="shape"/>
</filter>
<clipPath id="clip0_1_13002">
<path d="M25.9883 37.9844C25.9883 29.1479 33.1517 21.9844 41.9883 21.9844C50.8248 21.9844 57.9883 29.1479 57.9883 37.9844C57.9883 46.821 50.8248 53.9845 41.9883 53.9845C33.1517 53.9845 25.9883 46.821 25.9883 37.9844Z" fill="white"/>
</clipPath>
</defs>
</svg>
