<svg width="83" height="82" viewBox="0 0 83 82" fill="none" xmlns="http://www.w3.org/2000/svg">
<g filter="url(#filter0_d_35_9)">
<circle cx="41.8028" cy="36.9551" r="36.8966" fill="#E7EDFF"/>
<path d="M54.9375 14H35.25C33.7582 14 32.3274 14.5926 31.2725 15.6475C30.2176 16.7024 29.625 18.1332 29.625 19.625C28.1332 19.625 26.7024 20.2176 25.6475 21.2725C24.5926 22.3274 24 23.7582 24 25.25V53.375C24 54.8668 24.5926 56.2976 25.6475 57.3525C26.7024 58.4074 28.1332 59 29.625 59H49.3125C50.8043 59 52.2351 58.4074 53.29 57.3525C54.3449 56.2976 54.9375 54.8668 54.9375 53.375C56.4293 53.375 57.8601 52.7824 58.915 51.7275C59.9699 50.6726 60.5625 49.2418 60.5625 47.75V19.625C60.5625 18.1332 59.9699 16.7024 58.915 15.6475C57.8601 14.5926 56.4293 14 54.9375 14ZM54.9375 50.5625V25.25C54.9375 23.7582 54.3449 22.3274 53.29 21.2725C52.2351 20.2176 50.8043 19.625 49.3125 19.625H32.4375C32.4375 18.8791 32.7338 18.1637 33.2613 17.6363C33.7887 17.1088 34.5041 16.8125 35.25 16.8125H54.9375C55.6834 16.8125 56.3988 17.1088 56.9262 17.6363C57.4537 18.1637 57.75 18.8791 57.75 19.625V47.75C57.75 48.4959 57.4537 49.2113 56.9262 49.7387C56.3988 50.2662 55.6834 50.5625 54.9375 50.5625ZM26.8125 25.25C26.8125 24.5041 27.1088 23.7887 27.6363 23.2613C28.1637 22.7338 28.8791 22.4375 29.625 22.4375H49.3125C50.0584 22.4375 50.7738 22.7338 51.3012 23.2613C51.8287 23.7887 52.125 24.5041 52.125 25.25V53.375C52.125 54.1209 51.8287 54.8363 51.3012 55.3637C50.7738 55.8912 50.0584 56.1875 49.3125 56.1875H29.625C28.8791 56.1875 28.1637 55.8912 27.6363 55.3637C27.1088 54.8363 26.8125 54.1209 26.8125 53.375V25.25Z" fill="#4646A3" fill-opacity="0.75"/>
</g>
<defs>
<filter id="filter0_d_35_9" x="0.90625" y="0.0585938" width="81.793" height="81.793" filterUnits="userSpaceOnUse" color-interpolation-filters="sRGB">
<feFlood flood-opacity="0" result="BackgroundImageFix"/>
<feColorMatrix in="SourceAlpha" type="matrix" values="0 0 0 0 0 0 0 0 0 0 0 0 0 0 0 0 0 0 127 0" result="hardAlpha"/>
<feOffset dy="4"/>
<feGaussianBlur stdDeviation="2"/>
<feComposite in2="hardAlpha" operator="out"/>
<feColorMatrix type="matrix" values="0 0 0 0 0 0 0 0 0 0 0 0 0 0 0 0 0 0 0.25 0"/>
<feBlend mode="normal" in2="BackgroundImageFix" result="effect1_dropShadow_35_9"/>
<feBlend mode="normal" in="SourceGraphic" in2="effect1_dropShadow_35_9" result="shape"/>
</filter>
</defs>
</svg>
