<svg width="83" height="82" viewBox="0 0 83 82" fill="none" xmlns="http://www.w3.org/2000/svg">
<g filter="url(#filter0_d_1_13035)">
<circle cx="41.3282" cy="36.9551" r="36.8966" fill="#E7EDFF"/>
<path d="M37.5625 30.1562C36.7834 30.1562 36.0363 30.4657 35.4854 31.0166C34.9345 31.5675 34.625 32.3147 34.625 33.0938V52.1875C34.625 52.577 34.7797 52.9506 35.0552 53.2261C35.3306 53.5015 35.7042 53.6562 36.0938 53.6562C36.4833 53.6562 36.8569 53.5015 37.1323 53.2261C37.4078 52.9506 37.5625 52.577 37.5625 52.1875V46.3125H41.0522C43.1947 46.3125 45.2494 45.4614 46.7643 43.9465C48.2793 42.4315 49.1304 40.3768 49.1304 38.2344C49.1304 36.0919 48.2793 34.0372 46.7643 32.5223C45.2494 31.0073 43.1947 30.1562 41.0522 30.1562H37.5625ZM41.0522 43.375H37.5625V33.0938H41.0522C41.7273 33.0938 42.3958 33.2267 43.0195 33.4851C43.6432 33.7434 44.2099 34.1221 44.6872 34.5994C45.1646 35.0768 45.5432 35.6435 45.8016 36.2671C46.0599 36.8908 46.1929 37.5593 46.1929 38.2344C46.1929 38.9095 46.0599 39.5779 45.8016 40.2016C45.5432 40.8253 45.1646 41.392 44.6872 41.8693C44.2099 42.3467 43.6432 42.7254 43.0195 42.9837C42.3958 43.242 41.7273 43.375 41.0522 43.375Z" fill="#002080"/>
<path d="M58.125 27.2188V55.125C58.125 56.6831 57.506 58.1775 56.4043 59.2793C55.3025 60.381 53.8081 61 52.25 61H28.75C27.1919 61 25.6975 60.381 24.5957 59.2793C23.494 58.1775 22.875 56.6831 22.875 55.125V19.875C22.875 18.3169 23.494 16.8225 24.5957 15.7207C25.6975 14.619 27.1919 14 28.75 14H44.9062L58.125 27.2188ZM49.3125 27.2188C48.1439 27.2188 47.0231 26.7545 46.1968 25.9282C45.3705 25.1019 44.9062 23.9811 44.9062 22.8125V16.9375H28.75C27.9709 16.9375 27.2238 17.247 26.6729 17.7979C26.122 18.3488 25.8125 19.0959 25.8125 19.875V55.125C25.8125 55.9041 26.122 56.6512 26.6729 57.2021C27.2238 57.753 27.9709 58.0625 28.75 58.0625H52.25C53.0291 58.0625 53.7762 57.753 54.3271 57.2021C54.878 56.6512 55.1875 55.9041 55.1875 55.125V27.2188H49.3125Z" fill="#002080"/>
</g>
<defs>
<filter id="filter0_d_1_13035" x="0.431641" y="0.0585938" width="81.793" height="81.793" filterUnits="userSpaceOnUse" color-interpolation-filters="sRGB">
<feFlood flood-opacity="0" result="BackgroundImageFix"/>
<feColorMatrix in="SourceAlpha" type="matrix" values="0 0 0 0 0 0 0 0 0 0 0 0 0 0 0 0 0 0 127 0" result="hardAlpha"/>
<feOffset dy="4"/>
<feGaussianBlur stdDeviation="2"/>
<feComposite in2="hardAlpha" operator="out"/>
<feColorMatrix type="matrix" values="0 0 0 0 0 0 0 0 0 0 0 0 0 0 0 0 0 0 0.25 0"/>
<feBlend mode="normal" in2="BackgroundImageFix" result="effect1_dropShadow_1_13035"/>
<feBlend mode="normal" in="SourceGraphic" in2="effect1_dropShadow_1_13035" result="shape"/>
</filter>
</defs>
</svg>
