<svg width="83" height="83" viewBox="0 0 83 83" fill="none" xmlns="http://www.w3.org/2000/svg">
<g filter="url(#filter0_d_1_13025)">
<circle cx="41.3087" cy="37.7989" r="36.8966" fill="#E7EDFF"/>
<path d="M38.375 52.75C38.375 52.75 35.75 52.75 35.75 50.125C35.75 47.5 38.375 39.625 48.875 39.625C59.375 39.625 62 47.5 62 50.125C62 52.75 59.375 52.75 59.375 52.75H38.375ZM48.875 37C50.9636 37 52.9666 36.1703 54.4435 34.6935C55.9203 33.2166 56.75 31.2136 56.75 29.125C56.75 27.0364 55.9203 25.0334 54.4435 23.5565C52.9666 22.0797 50.9636 21.25 48.875 21.25C46.7864 21.25 44.7834 22.0797 43.3065 23.5565C41.8297 25.0334 41 27.0364 41 29.125C41 31.2136 41.8297 33.2166 43.3065 34.6935C44.7834 36.1703 46.7864 37 48.875 37ZM33.692 52.75C33.303 51.9305 33.109 51.032 33.125 50.125C33.125 46.5681 34.91 42.9062 38.207 40.36C36.5616 39.8519 34.8469 39.6039 33.125 39.625C22.625 39.625 20 47.5 20 50.125C20 52.75 22.625 52.75 22.625 52.75H33.692ZM31.8125 37C33.553 37 35.2222 36.3086 36.4529 35.0779C37.6836 33.8472 38.375 32.178 38.375 30.4375C38.375 28.697 37.6836 27.0278 36.4529 25.7971C35.2222 24.5664 33.553 23.875 31.8125 23.875C30.072 23.875 28.4028 24.5664 27.1721 25.7971C25.9414 27.0278 25.25 28.697 25.25 30.4375C25.25 32.178 25.9414 33.8472 27.1721 35.0779C28.4028 36.3086 30.072 37 31.8125 37Z" fill="#0738CE"/>
</g>
<defs>
<filter id="filter0_d_1_13025" x="0.412109" y="0.902344" width="81.793" height="81.793" filterUnits="userSpaceOnUse" color-interpolation-filters="sRGB">
<feFlood flood-opacity="0" result="BackgroundImageFix"/>
<feColorMatrix in="SourceAlpha" type="matrix" values="0 0 0 0 0 0 0 0 0 0 0 0 0 0 0 0 0 0 127 0" result="hardAlpha"/>
<feOffset dy="4"/>
<feGaussianBlur stdDeviation="2"/>
<feComposite in2="hardAlpha" operator="out"/>
<feColorMatrix type="matrix" values="0 0 0 0 0 0 0 0 0 0 0 0 0 0 0 0 0 0 0.25 0"/>
<feBlend mode="normal" in2="BackgroundImageFix" result="effect1_dropShadow_1_13025"/>
<feBlend mode="normal" in="SourceGraphic" in2="effect1_dropShadow_1_13025" result="shape"/>
</filter>
</defs>
</svg>
