<svg width="83" height="82" viewBox="0 0 83 82" fill="none" xmlns="http://www.w3.org/2000/svg">
<g filter="url(#filter0_d_1_13015)">
<circle cx="41.8184" cy="36.9551" r="36.8966" fill="#E7EDFF"/>
<path d="M46.0557 16H31.5C30.0413 16 28.6424 16.5795 27.6109 17.6109C26.5795 18.6424 26 20.0413 26 21.5V54.5C26 55.9587 26.5795 57.3576 27.6109 58.3891C28.6424 59.4205 30.0413 60 31.5 60H53.5C54.9587 60 56.3576 59.4205 57.3891 58.3891C58.4205 57.3576 59 55.9587 59 54.5V28.9442C58.9998 28.215 58.71 27.5156 58.1942 27L48 16.8058C47.4844 16.29 46.785 16.0002 46.0557 16ZM46.625 25.625V20.125L54.875 28.375H49.375C48.6457 28.375 47.9462 28.0853 47.4305 27.5695C46.9147 27.0538 46.625 26.3543 46.625 25.625ZM48 53.125V36.625C48 36.2603 48.1449 35.9106 48.4027 35.6527C48.6606 35.3949 49.0103 35.25 49.375 35.25H52.125C52.4897 35.25 52.8394 35.3949 53.0973 35.6527C53.3551 35.9106 53.5 36.2603 53.5 36.625V53.125C53.5 53.4897 53.3551 53.8394 53.0973 54.0973C52.8394 54.3551 52.4897 54.5 52.125 54.5H49.375C49.0103 54.5 48.6606 54.3551 48.4027 54.0973C48.1449 53.8394 48 53.4897 48 53.125ZM41.125 54.5C40.7603 54.5 40.4106 54.3551 40.1527 54.0973C39.8949 53.8394 39.75 53.4897 39.75 53.125V42.125C39.75 41.7603 39.8949 41.4106 40.1527 41.1527C40.4106 40.8949 40.7603 40.75 41.125 40.75H43.875C44.2397 40.75 44.5894 40.8949 44.8473 41.1527C45.1051 41.4106 45.25 41.7603 45.25 42.125V53.125C45.25 53.4897 45.1051 53.8394 44.8473 54.0973C44.5894 54.3551 44.2397 54.5 43.875 54.5H41.125ZM32.875 54.5C32.5103 54.5 32.1606 54.3551 31.9027 54.0973C31.6449 53.8394 31.5 53.4897 31.5 53.125V47.625C31.5 47.2603 31.6449 46.9106 31.9027 46.6527C32.1606 46.3949 32.5103 46.25 32.875 46.25H35.625C35.9897 46.25 36.3394 46.3949 36.5973 46.6527C36.8551 46.9106 37 47.2603 37 47.625V53.125C37 53.4897 36.8551 53.8394 36.5973 54.0973C36.3394 54.3551 35.9897 54.5 35.625 54.5H32.875Z" fill="#0168E0"/>
</g>
<defs>
<filter id="filter0_d_1_13015" x="0.921875" y="0.0585938" width="81.793" height="81.793" filterUnits="userSpaceOnUse" color-interpolation-filters="sRGB">
<feFlood flood-opacity="0" result="BackgroundImageFix"/>
<feColorMatrix in="SourceAlpha" type="matrix" values="0 0 0 0 0 0 0 0 0 0 0 0 0 0 0 0 0 0 127 0" result="hardAlpha"/>
<feOffset dy="4"/>
<feGaussianBlur stdDeviation="2"/>
<feComposite in2="hardAlpha" operator="out"/>
<feColorMatrix type="matrix" values="0 0 0 0 0 0 0 0 0 0 0 0 0 0 0 0 0 0 0.25 0"/>
<feBlend mode="normal" in2="BackgroundImageFix" result="effect1_dropShadow_1_13015"/>
<feBlend mode="normal" in="SourceGraphic" in2="effect1_dropShadow_1_13015" result="shape"/>
</filter>
</defs>
</svg>
