<svg width="25" height="27" viewBox="0 0 25 27" fill="none" xmlns="http://www.w3.org/2000/svg">
<path d="M9.05873 24.0257V20.3456C9.05871 19.4096 9.82851 18.649 10.7823 18.6427H14.2759C15.2343 18.6427 16.0111 19.4051 16.0111 20.3456V20.3456V24.0371C16.0109 24.8318 16.6573 25.4814 17.4668 25.5H19.7959C22.1178 25.5 24 23.6528 24 21.3742V21.3742V10.9054C23.9876 10.009 23.5587 9.16722 22.8354 8.61964L14.8699 2.32236C13.4744 1.22588 11.4907 1.22588 10.0952 2.32236L2.16456 8.63107C1.43852 9.17643 1.00894 10.0196 1 10.9168V21.3742C1 23.6528 2.88222 25.5 5.20405 25.5H7.53316C8.36285 25.5 9.03544 24.8399 9.03544 24.0257V24.0257" stroke="#92929D" stroke-width="2" stroke-linecap="round" stroke-linejoin="round"/>
</svg>
