<svg width="13" height="15" viewBox="0 0 13 15" fill="none" xmlns="http://www.w3.org/2000/svg">
<path d="M1.58925 15C1.15221 15 0.778072 14.8601 0.466843 14.5804C0.155614 14.3006 0 13.9643 0 13.5714V6.42857C0 6.03571 0.155614 5.69941 0.466843 5.41964C0.778072 5.13988 1.15221 5 1.58925 5H2.38388V3.57143C2.38388 2.58333 2.77126 1.74107 3.54602 1.04464C4.32078 0.348214 5.25778 0 6.35701 0C7.45624 0 8.39324 0.348214 9.168 1.04464C9.94276 1.74107 10.3301 2.58333 10.3301 3.57143V5H11.1248C11.5618 5 11.936 5.13988 12.2472 5.41964C12.5584 5.69941 12.714 6.03571 12.714 6.42857V13.5714C12.714 13.9643 12.5584 14.3006 12.2472 14.5804C11.936 14.8601 11.5618 15 11.1248 15H1.58925ZM1.58925 13.5714H11.1248V6.42857H1.58925V13.5714ZM6.35701 11.4286C6.79406 11.4286 7.16819 11.2887 7.47942 11.0089C7.79065 10.7292 7.94626 10.3929 7.94626 10C7.94626 9.60714 7.79065 9.27083 7.47942 8.99107C7.16819 8.71131 6.79406 8.57143 6.35701 8.57143C5.91997 8.57143 5.54583 8.71131 5.2346 8.99107C4.92337 9.27083 4.76776 9.60714 4.76776 10C4.76776 10.3929 4.92337 10.7292 5.2346 11.0089C5.54583 11.2887 5.91997 11.4286 6.35701 11.4286ZM3.97313 5H8.74089V3.57143C8.74089 2.97619 8.50912 2.47024 8.04559 2.05357C7.58206 1.6369 7.0192 1.42857 6.35701 1.42857C5.69482 1.42857 5.13196 1.6369 4.66843 2.05357C4.2049 2.47024 3.97313 2.97619 3.97313 3.57143V5Z" fill="#1C1B1F" fill-opacity="0.65"/>
</svg>
