<svg width="16" height="17" viewBox="0 0 16 17" fill="none" xmlns="http://www.w3.org/2000/svg">
<g clip-path="url(#clip0_1_8712)">
<path d="M14.2309 0.643857L14.2419 0.632812L14.2309 0.643861L15.403 1.81605L15.4141 1.805L15.403 1.81605C16.1782 2.59089 16.1782 3.84724 15.4034 4.62208L4.39224 15.6332L0.830824 16.0267C0.802931 16.0297 0.775689 16.0312 0.748469 16.0312C0.317969 16.0312 -0.0287084 15.6555 0.0202479 15.2155L0.416517 11.6515L11.4245 0.643553C11.8121 0.256284 12.3199 0.0625 12.8278 0.0625C13.3357 0.0625 13.8436 0.256284 14.2309 0.643857ZM3.94206 14.7087L3.94255 14.713L3.95139 14.7042L12.2011 6.4548L12.2121 6.44375L12.2011 6.4327L9.61452 3.84614L9.60347 3.83509L9.59242 3.84614L1.34586 12.0927L1.34276 12.0896L1.34138 12.102L1.01763 15.0136L1.01547 15.033L1.03488 15.0308L3.94206 14.7087ZM12.8859 5.74761L12.8969 5.75866L12.908 5.74761L14.7183 3.9373C15.1141 3.54119 15.1141 2.89693 14.7183 2.50083L14.7072 2.51187L14.7183 2.50083L13.5461 1.32864L13.5461 1.32863C13.3541 1.13696 13.0992 1.03125 12.8278 1.03125C12.5565 1.03125 12.3013 1.13696 12.1096 1.32864L10.2993 3.13895L10.2882 3.15L10.2993 3.16105L12.8859 5.74761Z" fill="black" stroke="black" stroke-width="0.03125"/>
</g>
<defs>
<clipPath id="clip0_1_8712">
<rect width="16" height="16" fill="white" transform="translate(0 0.046875)"/>
</clipPath>
</defs>
</svg>
