<svg width="16" height="17" viewBox="0 0 16 17" fill="none" xmlns="http://www.w3.org/2000/svg">
<g clip-path="url(#clip0_1_8716)">
<path d="M2.82667 3.03125H2.84375H13.1562H13.1733L13.1718 3.04827L12.1406 14.5919L12.1406 14.592C12.1299 14.7205 12.0713 14.8402 11.9763 14.9274C11.8814 15.0146 11.757 15.0629 11.6281 15.0625L2.82667 3.03125ZM2.82667 3.03125L2.82819 3.04827L3.85943 14.5919C3.85943 14.5919 3.85943 14.592 3.85943 14.592L2.82667 3.03125ZM11.4875 2.05625L11.4792 2.0625H11.5H14.75C14.8122 2.0625 14.8718 2.08719 14.9157 2.13115C14.9597 2.1751 14.9844 2.23471 14.9844 2.29688V2.79688C14.9844 2.85904 14.9597 2.91865 14.9157 2.9626C14.8718 3.00656 14.8122 3.03125 14.75 3.03125H14.1594H14.1451L14.1438 3.04549L13.1063 14.6798C13.0731 15.049 12.903 15.3923 12.6295 15.6424C12.3559 15.8925 11.9987 16.0312 11.6281 16.0312H4.37188C4.00125 16.0312 3.64406 15.8925 3.37052 15.6424C3.09698 15.3923 2.92689 15.049 2.89369 14.6798L1.85619 3.04549L1.85492 3.03125H1.84062H1.25C1.18784 3.03125 1.12823 3.00656 1.08427 2.9626C1.04032 2.91865 1.01562 2.85904 1.01562 2.79688V2.29688C1.01562 2.23471 1.04032 2.1751 1.08427 2.13115C1.12823 2.08719 1.18784 2.0625 1.25 2.0625H4.5V2.07292L4.5125 2.05625L5.5625 0.65625C5.70077 0.471896 5.88005 0.322266 6.08617 0.21921C6.29228 0.116153 6.51956 0.0625 6.75 0.0625H9.25C9.48044 0.0625 9.70772 0.116153 9.91383 0.21921C10.1199 0.322266 10.2992 0.471896 10.4375 0.65625L11.4875 2.05625ZM6.33753 1.23746L6.3375 1.2375L5.7375 2.0375L5.71875 2.0625H5.75H10.25H10.2812L10.2625 2.0375L9.6625 1.2375L9.66247 1.23746C9.61428 1.17362 9.55198 1.12179 9.48043 1.08601C9.40889 1.05024 9.33004 1.0315 9.25005 1.03125H9.25L6.75 1.03125L6.74995 1.03125C6.66996 1.0315 6.59111 1.05024 6.51957 1.08601C6.44802 1.12179 6.38572 1.17362 6.33753 1.23746Z" fill="white" stroke="#6A6A65" stroke-width="0.03125"/>
</g>
<defs>
<clipPath id="clip0_1_8716">
<rect width="16" height="16" fill="white" transform="translate(0 0.046875)"/>
</clipPath>
</defs>
</svg>
